# xmcd CD database file
#
# Track frame offsets:
#	150
#	14635
#	27588
#	36916
#	52294
#	65090
#	80072
#	98575
#	110000
#	126276
#	136290
#	148300
#	158655
#	172656
#	183622
#	193469
#	202433
#	213476
#	226529
#	240089
#	252971
#	266570
#	281525
#	303055
#	314199
#
# Disc length: 4586 seconds
#
# Revision: 15
# Processed by: cddbd v1.5.2PL0 Copyright (c) Steve Scherf et al.
# Submitted via: ACXtractor (MTCDDB.DLL V2003.12.21)
#
DISCID=8111e819
DTITLE=Various Artist - Golden Country Hits - Vol.1
DYEAR=1997
DGENRE=Country
TTITLE0=The Bellamy Brothers - If I Said You Had A Beautiful Body
TTITLE1=Lynn Anderson - Rose Garden
TTITLE2=Frankie Laine - Rawhide
TTITLE3=Merle Haggard - Mule Skinner Blues
TTITLE4=Kenny Rogers - Ruben James
TTITLE5=The Bellamy Brothers - Lovers Live Longer
TTITLE6=Carmen and Thompson - The Sun Goes Down
TTITLE7=Wanda Jackson - In The Middle Of A Heartache
TTITLE8=Lynn Anderson - The Devil Went Down To Georgia
TTITLE9=Johnny Cash - Rock Island Line
TTITLE10=Justin Tubb - Lodi
TTITLE11=Jimmie Rodgers - Oh-o I'm Falling In Love Again
TTITLE12=Willie Nelson - Home Is Where You're Happy
TTITLE13=Conway Twitty - The Hurt in my Heart
TTITLE14=Faron Young - Country Girl
TTITLE15=Mac Davis - Why Can't I Be Like The Others
TTITLE16=Waylon Jennings - Dream Baby
TTITLE17=Don Williams - Where Do We Go From Here
TTITLE18=Willie Nelson - No Tomorrow In Sight
TTITLE19=Johnny Cash - Folsom Prison Blues
TTITLE20=Jimmy Dean - Big Bad John
TTITLE21=The Kingston Trio - Tom Dooley
TTITLE22=Phil Carmen - Borderline Down - live
TTITLE23=Loretta Lynn - Hey Loretta - live
TTITLE24=Fifth Dimension - Ode To Billy Joe - live
EXTD=YEAR: 1997 ID3G:   2
EXTT0=
EXTT1=
EXTT2=
EXTT3=
EXTT4=
EXTT5=
EXTT6=
EXTT7=
EXTT8=
EXTT9=
EXTT10=
EXTT11=
EXTT12=
EXTT13=
EXTT14=
EXTT15=
EXTT16=
EXTT17=
EXTT18=
EXTT19=
EXTT20=
EXTT21=
EXTT22=
EXTT23=
EXTT24=
PLAYORDER=
